<?xml version="1.0" encoding="UTF-8"?>
<svg xmlns="http://www.w3.org/2000/svg" version="1.1" width="300" height="300" viewBox="0 0 300 300"><rect x="0" y="0" width="300" height="300" fill="#fefefe"/><g transform="scale(8.108)"><g transform="translate(4,4)"><path fill-rule="evenodd" d="M8 0L8 1L10 1L10 0ZM13 0L13 1L14 1L14 2L11 2L11 4L10 4L10 3L9 3L9 2L8 2L8 5L9 5L9 6L8 6L8 7L9 7L9 8L8 8L8 9L9 9L9 10L8 10L8 11L7 11L7 10L6 10L6 9L7 9L7 8L6 8L6 9L5 9L5 10L4 10L4 8L0 8L0 9L1 9L1 10L2 10L2 12L1 12L1 11L0 11L0 12L1 12L1 13L0 13L0 14L2 14L2 15L0 15L0 17L1 17L1 18L0 18L0 19L1 19L1 18L6 18L6 19L7 19L7 20L5 20L5 21L7 21L7 20L8 20L8 19L9 19L9 20L10 20L10 22L9 22L9 21L8 21L8 22L9 22L9 24L14 24L14 26L13 26L13 25L12 25L12 29L13 29L13 27L15 27L15 29L16 29L16 27L15 27L15 26L17 26L17 27L18 27L18 29L21 29L21 27L20 27L20 26L19 26L19 25L18 25L18 24L19 24L19 23L20 23L20 25L21 25L21 26L22 26L22 25L23 25L23 28L26 28L26 26L28 26L28 27L27 27L27 29L28 29L28 27L29 27L29 25L28 25L28 24L29 24L29 23L28 23L28 22L29 22L29 21L27 21L27 18L28 18L28 15L29 15L29 13L27 13L27 12L26 12L26 11L28 11L28 12L29 12L29 11L28 11L28 10L29 10L29 8L28 8L28 10L26 10L26 11L25 11L25 13L27 13L27 14L23 14L23 13L24 13L24 11L22 11L22 10L25 10L25 9L27 9L27 8L24 8L24 9L22 9L22 8L21 8L21 11L22 11L22 12L23 12L23 13L22 13L22 14L20 14L20 12L17 12L17 13L16 13L16 14L17 14L17 15L16 15L16 16L15 16L15 15L14 15L14 14L15 14L15 12L14 12L14 11L13 11L13 9L15 9L15 10L16 10L16 11L19 11L19 10L20 10L20 9L19 9L19 8L20 8L20 7L21 7L21 6L20 6L20 4L21 4L21 0L18 0L18 1L17 1L17 0L16 0L16 1L17 1L17 2L16 2L16 3L15 3L15 0ZM19 1L19 2L20 2L20 1ZM17 2L17 3L18 3L18 4L20 4L20 3L18 3L18 2ZM13 3L13 4L12 4L12 5L10 5L10 6L9 6L9 7L10 7L10 8L9 8L9 9L10 9L10 10L9 10L9 11L8 11L8 12L7 12L7 11L6 11L6 10L5 10L5 12L7 12L7 13L5 13L5 14L8 14L8 15L6 15L6 16L10 16L10 17L9 17L9 18L10 18L10 19L11 19L11 20L12 20L12 21L11 21L11 22L13 22L13 23L15 23L15 24L16 24L16 25L17 25L17 24L18 24L18 23L16 23L16 21L17 21L17 22L18 22L18 21L17 21L17 20L15 20L15 18L13 18L13 20L12 20L12 18L11 18L11 15L12 15L12 16L14 16L14 15L12 15L12 14L13 14L13 13L14 13L14 12L12 12L12 11L11 11L11 7L12 7L12 5L13 5L13 4L14 4L14 3ZM16 4L16 5L15 5L15 7L14 7L14 6L13 6L13 8L15 8L15 9L17 9L17 10L19 10L19 9L17 9L17 7L18 7L18 6L19 6L19 7L20 7L20 6L19 6L19 5L18 5L18 6L17 6L17 4ZM10 6L10 7L11 7L11 6ZM16 6L16 7L15 7L15 8L16 8L16 7L17 7L17 6ZM2 9L2 10L3 10L3 9ZM3 11L3 12L2 12L2 14L4 14L4 13L3 13L3 12L4 12L4 11ZM9 12L9 13L8 13L8 14L9 14L9 13L10 13L10 14L11 14L11 13L12 13L12 12L11 12L11 13L10 13L10 12ZM17 13L17 14L19 14L19 13ZM4 15L4 16L1 16L1 17L5 17L5 15ZM17 15L17 16L16 16L16 17L17 17L17 18L18 18L18 16L19 16L19 19L18 19L18 20L20 20L20 16L22 16L22 17L21 17L21 20L22 20L22 18L23 18L23 15ZM24 15L24 16L25 16L25 17L24 17L24 19L23 19L23 20L26 20L26 19L25 19L25 18L26 18L26 17L27 17L27 15ZM6 17L6 18L7 18L7 19L8 19L8 18L7 18L7 17ZM2 19L2 20L1 20L1 21L2 21L2 20L3 20L3 21L4 21L4 19ZM13 20L13 22L14 22L14 21L15 21L15 20ZM19 21L19 22L20 22L20 21ZM21 21L21 24L24 24L24 21ZM22 22L22 23L23 23L23 22ZM26 22L26 23L25 23L25 25L26 25L26 24L27 24L27 22ZM8 25L8 29L10 29L10 28L9 28L9 26L10 26L10 25ZM24 26L24 27L25 27L25 26ZM0 0L0 7L7 7L7 0ZM1 1L1 6L6 6L6 1ZM2 2L2 5L5 5L5 2ZM22 0L22 7L29 7L29 0ZM23 1L23 6L28 6L28 1ZM24 2L24 5L27 5L27 2ZM0 22L0 29L7 29L7 22ZM1 23L1 28L6 28L6 23ZM2 24L2 27L5 27L5 24Z" fill="#000000"/></g></g></svg>
